<svg xmlns="http://www.w3.org/2000/svg" xmlns:xlink="http://www.w3.org/1999/xlink" width="128" height="40"><defs><symbol id="a" overflow="visible"><path d="M6.156-11.375 3.75-4.844h4.813Zm-1-1.75h2L12.172 0h-1.86L9.126-3.36H3.203L2.016 0H.14Zm0 0" style="stroke:none"/></symbol><symbol id="b" overflow="visible"><path d="M1.703-13.672h1.61V0h-1.61Zm0 0" style="stroke:none"/></symbol><symbol id="c" overflow="visible"><path d="M1.703-9.844h1.61V0h-1.61Zm0-3.828h1.61v2.047h-1.61Zm0 0" style="stroke:none"/></symbol><symbol id="d" overflow="visible"><path d="M7.969-9.547v1.516a6.8 6.8 0 0 0-1.422-.516q-.736-.187-1.531-.187-1.206 0-1.813.375-.596.375-.594 1.109 0 .563.422.89.434.318 1.735.61l.562.11q1.717.376 2.438 1.046.733.674.734 1.875-.002 1.376-1.094 2.172Q6.327.25 4.438.25A9.5 9.5 0 0 1 2.78.094 12 12 0 0 1 .97-.36v-1.672a9 9 0 0 0 1.765.703q.873.234 1.735.234 1.138 0 1.75-.39c.414-.258.625-.63.625-1.11q-.002-.655-.453-1-.439-.359-1.938-.687l-.562-.125q-1.52-.327-2.188-.969-.656-.655-.656-1.812 0-1.374.984-2.125c.656-.508 1.586-.766 2.797-.766a9.5 9.5 0 0 1 1.672.14 7 7 0 0 1 1.469.391m0 0" style="stroke:none"/></symbol><symbol id="e" overflow="visible"><path d="M3.297-12.64v2.796h3.328v1.25H3.297v5.344q0 1.207.328 1.547c.219.23.664.344 1.344.344h1.656V0H4.969Q3.092.002 2.375-.687c-.469-.47-.703-1.32-.703-2.563v-5.344H.484v-1.25h1.188v-2.797Zm0 0" style="stroke:none"/></symbol></defs><path d="M108 0H20C9 0 0 9 0 20s9 20 20 20h88c11 0 20-9 20-20s-9-20-20-20m0 0" style="stroke:none;fill-rule:nonzero;fill:#24341c;fill-opacity:1"/><path d="M33.3 11c.2 0 .4 0 .598.102.301.199.403.398.602.699.7 1.097 1.398 2.3 2.102 3.398.898 1.5 1.796 3.102 2.699 4.602.597 1.097 1.3 2.097 1.898 3.199q.603 1.048 1.2 2.102c.203.296.3.597.3 1 0 .296-.097.5-.199.796-.2.301-.5.602-.898.704-.204.097-.403.097-.602.097h-6.7c-.198 0-.402 0-.6-.097-.098-.102-.302-.102-.4-.204-.198-.199-.3-.398-.3-.699 0-.199.102-.3.102-.5.097-.199.199-.3.296-.5.403-.699.801-1.3 1.204-2 .097-.199.199-.398.398-.597.2-.204.398-.301.7-.301.198 0 .402.097.6.199.2.102.4.3.4.5.1.3 0 .602-.098.8-.102.302-.301.598-.403.9v.198c.102.102.102.102.2.102H39.7c.1 0 .198 0 .3-.102.102 0 .102-.097 0-.199 0-.097-.102-.3-.2-.398-2-3.403-4-6.903-6.1-10.301-.098-.102-.098-.2-.2-.3 0 0-.102-.098-.2-.098-.1 0-.1.097-.1.097-.098.102-.2.2-.2.403-.398.597-.7 1.199-1 1.699-2 3.3-4 6.699-6 10-.102.199-.3.398-.398.699-.102.2-.301.398-.5.5-.204.102-.5.2-.801.102-.2-.102-.403-.204-.5-.301-.2-.2-.2-.403-.2-.7 0-.3.098-.5.2-.703 1.199-2 2.398-4.097 3.597-6.097a54 54 0 0 1 1.903-3.2c.597-1.101 1.3-2.101 1.898-3.203.403-.597.7-1.199 1.102-1.796.097-.204.3-.403.398-.5.2 0 .403-.102.602-.102m0 0" style="stroke:none;fill-rule:nonzero;fill:#b9ff95;fill-opacity:1"/><path d="M33.2 18.898c.3 0 .6 0 .902.204.199.097.296.398.398.597 0 .2 0 .403-.102.5-.097.102-.097.301-.199.403C33 22.5 31.9 24.5 30.7 26.398c-.097.204-.3.5-.5.704-.097.199-.3.296-.5.398-.398.2-.898.102-1.199-.2-.102-.1-.2-.3-.2-.6 0-.2 0-.4.098-.598.102-.204.204-.403.301-.5.5-.903 1-1.704 1.5-2.602.7-1.2 1.403-2.3 2.102-3.5.097-.102.199-.3.3-.398.2-.102.399-.204.598-.204m0 0" style="stroke:none;fill-rule:nonzero;fill:#b9ff95;fill-opacity:1"/><g style="fill:#b9ff95;fill-opacity:1"><use xlink:href="#a" x="53.809" y="26.109"/><use xlink:href="#b" x="66.121" y="26.109"/><use xlink:href="#c" x="71.122" y="26.109"/><use xlink:href="#d" x="76.123" y="26.109"/><use xlink:href="#e" x="85.5" y="26.109"/></g></svg>