<?xml version="1.0" encoding="UTF-8"?><svg id="_图层_1" xmlns="http://www.w3.org/2000/svg" xmlns:xlink="http://www.w3.org/1999/xlink" viewBox="0 0 128 40"><defs><style>.cls-1{fill:#24341c;}.cls-1,.cls-2,.cls-3{stroke-width:0px;}.cls-4{font-family:ArialRoundedMTBold, 'Arial Rounded MT Bold';font-size:18px;}.cls-4,.cls-3{fill:#b9ff95;}.cls-2{fill:none;}.cls-5{clip-path:url(#clippath);}</style><clipPath id="clippath"><rect class="cls-2" width="128" height="40"/></clipPath></defs><g class="cls-5"><path class="cls-1" d="m108,0H20C8.95,0,0,8.95,0,20s8.95,20,20,20h88c11.05,0,20-8.95,20-20S119.05,0,108,0Z"/></g><path class="cls-3" d="m33.27,10.97c.2-.02.41.02.58.14.25.16.43.41.58.66.68,1.14,1.37,2.29,2.05,3.43.91,1.53,1.82,3.06,2.73,4.6.63,1.06,1.26,2.12,1.89,3.18.42.71.84,1.41,1.24,2.12.17.3.27.65.25.99,0,.27-.06.54-.2.78-.2.33-.53.56-.89.68-.19.07-.39.12-.6.12-2.23,0-4.45,0-6.68,0-.19,0-.39-.03-.57-.1-.13-.06-.26-.13-.36-.23-.18-.17-.29-.42-.26-.67.02-.17.06-.35.13-.51.07-.16.17-.31.25-.47.37-.66.76-1.32,1.17-1.96.13-.2.24-.42.42-.59.19-.17.43-.31.69-.33.21,0,.42.06.59.18.2.12.35.31.41.54.08.29,0,.59-.13.85-.14.3-.33.57-.43.88-.02.07-.04.16,0,.22.05.05.13.07.2.09.2.04.41.03.62.03.76,0,1.51,0,2.27,0,.15,0,.3,0,.45,0,.11-.01.23-.03.31-.11.06-.05.06-.13.04-.2-.05-.15-.13-.28-.2-.42-2.02-3.45-4.03-6.9-6.07-10.34-.07-.11-.12-.23-.22-.32-.05-.05-.12-.07-.18-.05-.05.02-.09.07-.13.11-.09.11-.17.24-.24.36-.35.57-.69,1.15-1.03,1.73-1.98,3.34-3.97,6.68-5.95,10.02-.12.23-.25.45-.4.66-.13.18-.28.36-.47.47-.23.13-.52.19-.78.11-.19-.06-.37-.15-.51-.3-.17-.17-.25-.42-.24-.66,0-.25.09-.49.22-.71,1.2-2.05,2.42-4.09,3.63-6.13.63-1.06,1.25-2.12,1.88-3.17.64-1.07,1.28-2.14,1.91-3.21.35-.6.71-1.2,1.08-1.8.11-.19.26-.36.44-.49.15-.1.31-.19.49-.2Z"/><path class="cls-3" d="m33.17,18.88c.3-.05.62.02.87.2.19.15.32.36.36.6.03.18,0,.37-.06.54-.05.15-.12.29-.2.42-1.16,1.95-2.31,3.89-3.47,5.84-.15.24-.28.5-.45.72-.12.15-.28.28-.46.37-.38.2-.87.08-1.16-.22-.15-.15-.23-.35-.24-.55-.02-.21.03-.43.13-.62.08-.18.18-.36.29-.53.51-.86,1.01-1.71,1.52-2.57.69-1.18,1.4-2.35,2.1-3.52.07-.13.17-.26.27-.37.14-.14.32-.26.52-.29Z"/><text class="cls-4" transform="translate(53.81 26.11)"><tspan x="0" y="0">Alist</tspan></text></svg>