<?xml version="1.0" encoding="utf-8"?>
<!-- Generator: Adobe Illustrator 28.0.0, SVG Export Plug-In . SVG Version: 6.00 Build 0)  -->
<svg version="1.1" id="图层_1" xmlns="http://www.w3.org/2000/svg" xmlns:xlink="http://www.w3.org/1999/xlink" x="0px" y="0px"
	 viewBox="0 0 128 40" enable-background="new 0 0 128 40" xml:space="preserve">
<g>
	<g>
		<defs>
			<rect id="SVGID_1_" width="128" height="40"/>
		</defs>
		<clipPath id="SVGID_00000055687902663250328500000005218919776926568370_">
			<use xlink:href="#SVGID_1_"  overflow="visible"/>
		</clipPath>
		<g clip-path="url(#SVGID_00000055687902663250328500000005218919776926568370_)">
			<path fill="#24341C" d="M108,0H20C9,0,0,9,0,20s9,20,20,20h88c11,0,20-9,20-20S119,0,108,0z"/>
		</g>
	</g>
</g>
<path fill="#B9FF95" d="M33.3,11c0.2,0,0.4,0,0.6,0.1c0.3,0.2,0.4,0.4,0.6,0.7c0.7,1.1,1.4,2.3,2.1,3.4c0.9,1.5,1.8,3.1,2.7,4.6
	c0.6,1.1,1.3,2.1,1.9,3.2c0.4,0.7,0.8,1.4,1.2,2.1c0.2,0.3,0.3,0.6,0.3,1c0,0.3-0.1,0.5-0.2,0.8c-0.2,0.3-0.5,0.6-0.9,0.7
	c-0.2,0.1-0.4,0.1-0.6,0.1c-2.2,0-4.5,0-6.7,0c-0.2,0-0.4,0-0.6-0.1c-0.1-0.1-0.3-0.1-0.4-0.2C33.1,27.2,33,27,33,26.7
	c0-0.2,0.1-0.3,0.1-0.5c0.1-0.2,0.2-0.3,0.3-0.5c0.4-0.7,0.8-1.3,1.2-2c0.1-0.2,0.2-0.4,0.4-0.6s0.4-0.3,0.7-0.3
	c0.2,0,0.4,0.1,0.6,0.2c0.2,0.1,0.4,0.3,0.4,0.5c0.1,0.3,0,0.6-0.1,0.8c-0.1,0.3-0.3,0.6-0.4,0.9c0,0.1,0,0.2,0,0.2
	c0.1,0.1,0.1,0.1,0.2,0.1c0.2,0,0.4,0,0.6,0c0.8,0,1.5,0,2.3,0c0.1,0,0.3,0,0.4,0c0.1,0,0.2,0,0.3-0.1c0.1,0,0.1-0.1,0-0.2
	c0-0.1-0.1-0.3-0.2-0.4c-2-3.4-4-6.9-6.1-10.3c-0.1-0.1-0.1-0.2-0.2-0.3c0,0-0.1-0.1-0.2-0.1c-0.1,0-0.1,0.1-0.1,0.1
	c-0.1,0.1-0.2,0.2-0.2,0.4c-0.4,0.6-0.7,1.2-1,1.7c-2,3.3-4,6.7-6,10c-0.1,0.2-0.3,0.4-0.4,0.7c-0.1,0.2-0.3,0.4-0.5,0.5
	s-0.5,0.2-0.8,0.1c-0.2-0.1-0.4-0.2-0.5-0.3c-0.2-0.2-0.2-0.4-0.2-0.7c0-0.3,0.1-0.5,0.2-0.7c1.2-2,2.4-4.1,3.6-6.1
	c0.6-1.1,1.2-2.1,1.9-3.2c0.6-1.1,1.3-2.1,1.9-3.2c0.4-0.6,0.7-1.2,1.1-1.8c0.1-0.2,0.3-0.4,0.4-0.5C32.9,11.1,33.1,11,33.3,11z"/>
<path fill="#B9FF95" d="M33.2,18.9c0.3,0,0.6,0,0.9,0.2c0.2,0.1,0.3,0.4,0.4,0.6c0,0.2,0,0.4-0.1,0.5s-0.1,0.3-0.2,0.4
	c-1.2,1.9-2.3,3.9-3.5,5.8c-0.1,0.2-0.3,0.5-0.5,0.7c-0.1,0.2-0.3,0.3-0.5,0.4c-0.4,0.2-0.9,0.1-1.2-0.2c-0.1-0.1-0.2-0.3-0.2-0.6
	c0-0.2,0-0.4,0.1-0.6s0.2-0.4,0.3-0.5c0.5-0.9,1-1.7,1.5-2.6c0.7-1.2,1.4-2.3,2.1-3.5c0.1-0.1,0.2-0.3,0.3-0.4
	C32.8,19,33,18.9,33.2,18.9z"/>
<text transform="matrix(1 0 0 1 53.8083 26.1097)" fill="#B9FF95" font-family="'ArialRoundedMTBold'" font-size="18px">Alist</text>
</svg>
